<svg version="1.1" id="Layer_1" xmlns="http://www.w3.org/2000/svg" xmlns:xlink="http://www.w3.org/1999/xlink" x="0px" y="0px"
	 width="100%" viewBox="0 0 475 479" enable-background="new 0 0 475 479" xml:space="preserve">
<path fill="#12304C" opacity="1.000000" stroke="none" 
	d="
M249.000000,480.000000 
	C167.354599,480.000000 86.209167,479.976166 5.063919,480.086182 
	C1.780989,480.090637 0.894935,479.620972 0.897619,476.065796 
	C1.016127,319.107025 1.018213,162.148148 0.890798,5.189400 
	C0.887738,1.419901 1.865054,0.914238 5.308514,0.916376 
	C160.767700,1.012886 316.226959,1.012647 471.686157,0.917591 
	C475.115265,0.915495 476.113342,1.399908 476.110260,5.184092 
	C475.981537,162.142838 475.984009,319.101715 476.101807,476.060486 
	C476.104462,479.604797 475.235779,480.092285 471.941376,480.087250 
	C397.794373,479.973633 323.647156,480.000000 249.000000,480.000000 
z"/>
<path fill="#FDFEFE" opacity="1.000000" stroke="none" 
	d="
M316.742798,334.742493 
	C321.238190,330.253815 325.422852,325.952026 329.748047,321.796539 
	C331.676605,319.943634 331.975159,318.361816 330.844330,315.751190 
	C321.255615,293.614868 334.262787,268.535767 358.113800,263.791534 
	C374.451904,260.541718 390.047394,269.142242 396.961334,280.056854 
	C405.777954,293.975067 405.461182,311.306580 395.489594,323.856323 
	C384.470734,337.723999 367.592438,342.042725 349.975006,335.418671 
	C347.894287,334.636353 346.953674,334.199280 344.835236,336.288116 
	C328.645264,352.251617 313.295410,369.131897 296.556732,384.440887 
	C272.761169,406.203918 238.496719,404.049072 218.151352,380.210388 
	C199.377396,358.212921 200.844757,326.575378 222.708344,304.775574 
	C259.530304,268.061066 296.274750,231.268768 333.018799,194.476273 
	C351.401886,176.068939 353.096405,141.127472 337.118439,120.514091 
	C324.287048,103.960152 307.559601,95.530457 286.836548,96.175140 
	C273.116577,96.601974 260.524597,101.212341 250.377106,111.112328 
	C245.055725,116.303925 239.854523,121.646492 234.220474,126.479553 
	C230.787262,129.424683 231.757721,130.970810 234.423187,133.741409 
	C241.663559,141.267349 250.060791,147.735825 255.992569,156.469345 
	C271.654236,179.528442 265.197205,211.097382 241.111145,225.189362 
	C211.651016,242.425568 175.460449,225.833847 169.017624,193.572586 
	C165.537659,176.147369 170.296707,161.044235 182.984863,148.500626 
	C188.436264,143.111343 193.829895,137.663651 199.257233,132.249969 
	C200.437332,131.072861 201.853745,130.164398 199.851562,128.298264 
	C190.901703,119.956512 183.291168,110.110077 172.397705,103.962738 
	C147.041748,89.654037 118.018906,95.139984 99.374626,115.346016 
	C88.510452,127.120232 83.231148,141.717880 84.129150,157.839081 
	C84.943001,172.449524 90.140968,185.582870 100.677383,196.143600 
	C130.693024,226.228516 160.776474,256.245789 190.804840,286.318024 
	C197.100189,292.622559 196.525055,300.393646 189.354401,304.072174 
	C184.677063,306.471619 180.005035,305.500122 176.403549,301.806458 
	C160.397675,285.390839 143.737061,269.634094 127.952888,252.986725 
	C115.968681,240.347153 103.134064,228.516922 90.775963,216.227921 
	C78.838486,204.357193 69.488144,190.986359 65.784035,174.115082 
	C60.480026,149.956726 64.225182,127.605026 78.977432,107.632843 
	C92.870934,88.823250 111.668945,78.430420 135.082291,75.887886 
	C156.664230,73.544228 175.704102,79.674660 192.578506,92.456535 
	C200.201035,98.230385 206.599228,105.660210 213.313934,112.570915 
	C215.600082,114.923767 216.772110,114.803734 219.071060,112.551064 
	C226.892349,104.887123 233.928040,96.384926 243.028793,90.060051 
	C254.373581,82.175613 266.774536,77.489891 280.573090,75.863922 
	C297.011597,73.926857 312.607239,76.929695 326.820831,84.587158 
	C348.215363,96.113319 361.838104,114.100044 367.067169,138.199173 
	C370.344696,153.304153 369.042969,167.926529 364.102905,182.452713 
	C360.330139,193.546509 354.159058,203.159210 346.026001,211.348389 
	C309.619568,248.006012 273.016418,284.468231 236.489380,321.006104 
	C226.096451,331.402130 223.120605,343.768829 228.499084,357.311798 
	C233.661804,370.311462 244.047516,377.745941 257.973206,378.423523 
	C268.130768,378.917786 277.059448,374.770142 284.362000,367.210815 
	C294.898651,356.303650 305.764099,345.714081 316.742798,334.742493 
z"/>
<path fill="#14314C" opacity="1.000000" stroke="none" 
	d="
M188.358139,183.102707 
	C189.289963,172.613724 195.087219,165.369873 202.075958,158.748520 
	C206.268280,154.776566 210.259750,150.592850 214.351791,146.514664 
	C215.266602,145.602951 216.053635,144.374191 217.525360,145.989578 
	C224.431824,153.570114 232.763412,159.824936 238.723724,168.268753 
	C245.320724,177.614578 245.637604,189.611786 239.323776,198.745056 
	C232.516998,208.591339 222.768875,212.487518 211.020111,210.824387 
	C200.693604,209.362610 191.605347,200.434692 189.174240,189.862000 
	C188.698380,187.792496 188.603836,185.635300 188.358139,183.102707 
z"/>
<path fill="#16314B" opacity="1.000000" stroke="none" 
	d="
M349.186676,295.488403 
	C352.612305,288.618530 357.054047,283.843567 365.083282,283.973480 
	C372.172821,284.088226 377.400238,287.047028 380.592957,293.469574 
	C383.595673,299.509735 382.086578,308.444855 377.257263,312.908936 
	C370.778656,318.897552 364.284821,319.559601 356.254608,315.050140 
	C350.514008,311.826447 347.405579,304.626648 348.793793,297.807587 
	C348.924438,297.165710 348.952209,296.502869 349.186676,295.488403 
z"/>
</svg>